<svg id="svg" version="1.1" xmlns="http://www.w3.org/2000/svg" xmlns:xlink="http://www.w3.org/1999/xlink" width="400" height="400" viewBox="0, 0, 400,400"><g id="svgg"><path id="path0" d="M338.400 99.353 C 338.400 100.039,339.903 100.481,340.261 99.901 C 340.416 99.651,340.333 99.594,340.062 99.762 C 339.788 99.931,339.600 99.793,339.600 99.424 C 339.600 99.081,339.330 98.800,339.000 98.800 C 338.670 98.800,338.400 99.049,338.400 99.353 M357.200 110.867 C 357.200 111.764,351.451 121.841,347.882 127.200 C 339.170 140.282,326.255 154.262,314.187 163.674 C 306.780 169.451,290.133 180.000,288.424 180.000 C 287.697 180.000,287.960 181.394,288.800 182.000 C 289.240 182.317,289.600 182.897,289.600 183.288 C 289.600 183.680,289.780 184.000,290.000 184.000 C 290.220 184.000,290.400 184.360,290.400 184.800 C 290.400 185.240,290.580 185.600,290.800 185.600 C 291.020 185.600,291.200 185.897,291.200 186.260 C 291.200 187.037,293.228 191.339,293.685 191.533 C 293.858 191.607,294.000 192.012,294.000 192.433 C 294.000 192.855,294.180 193.200,294.400 193.200 C 294.620 193.200,294.800 193.560,294.800 194.000 C 294.800 194.440,294.980 194.800,295.200 194.800 C 295.420 194.800,295.600 195.160,295.600 195.600 C 295.600 196.040,295.780 196.400,296.000 196.400 C 296.220 196.400,296.400 196.760,296.400 197.200 C 296.400 197.640,296.580 198.000,296.800 198.000 C 297.020 198.000,297.200 198.360,297.200 198.800 C 297.200 199.240,297.380 199.600,297.600 199.600 C 297.820 199.600,298.000 199.960,298.000 200.400 C 298.000 200.840,298.180 201.200,298.400 201.200 C 298.620 201.200,298.800 201.560,298.800 202.000 C 298.800 202.440,298.980 202.800,299.200 202.800 C 299.420 202.800,299.600 203.340,299.600 204.000 C 299.600 204.660,299.780 205.200,300.000 205.200 C 300.220 205.200,300.400 205.560,300.400 206.000 C 300.400 206.440,300.535 206.801,300.700 206.803 C 301.106 206.807,302.000 208.786,302.000 209.680 C 302.000 210.076,302.180 210.400,302.400 210.400 C 302.620 210.400,302.800 210.940,302.800 211.600 C 302.800 212.260,302.980 212.800,303.200 212.800 C 303.420 212.800,303.600 213.160,303.600 213.600 C 303.600 214.040,303.780 214.400,304.000 214.400 C 304.220 214.400,304.400 214.940,304.400 215.600 C 304.400 216.260,304.580 216.800,304.800 216.800 C 305.020 216.800,305.200 217.263,305.200 217.829 C 305.200 219.837,307.497 220.794,308.493 219.200 C 308.768 218.760,309.309 218.400,309.696 218.400 C 310.083 218.400,310.400 218.220,310.400 218.000 C 310.400 217.780,310.760 217.600,311.200 217.600 C 311.640 217.600,312.000 217.420,312.000 217.200 C 312.000 216.980,312.360 216.800,312.800 216.800 C 313.240 216.800,313.600 216.620,313.600 216.400 C 313.600 216.180,313.960 216.000,314.400 216.000 C 314.840 216.000,315.200 215.820,315.200 215.600 C 315.200 215.380,315.520 215.200,315.912 215.200 C 316.303 215.200,316.883 214.840,317.200 214.400 C 317.517 213.960,318.097 213.600,318.488 213.600 C 318.880 213.600,319.200 213.420,319.200 213.200 C 319.200 212.980,319.700 212.800,320.312 212.800 C 320.965 212.800,321.661 212.470,322.000 212.000 C 322.317 211.560,322.831 211.200,323.141 211.200 C 323.730 211.200,325.200 209.728,325.200 209.139 C 325.200 208.952,325.638 208.800,326.174 208.800 C 327.805 208.800,329.050 208.129,330.957 206.222 C 331.959 205.220,332.981 204.400,333.229 204.400 C 333.477 204.400,334.183 203.860,334.800 203.200 C 335.417 202.540,336.169 202.000,336.472 202.000 C 336.775 202.000,337.283 201.640,337.600 201.200 C 337.918 200.759,338.635 200.400,339.200 200.400 C 339.794 200.400,340.470 200.042,340.812 199.547 C 341.813 198.094,345.931 194.000,346.391 194.000 C 346.631 194.000,347.442 193.415,348.194 192.700 C 351.756 189.312,352.368 188.799,352.866 188.782 C 353.160 188.772,354.570 187.496,356.000 185.946 C 357.430 184.397,360.085 181.617,361.900 179.770 C 363.715 177.923,365.200 176.216,365.200 175.977 C 365.200 175.738,365.470 175.273,365.800 174.943 C 366.130 174.613,366.400 174.430,366.400 174.537 C 366.400 174.643,367.390 173.764,368.600 172.583 C 369.810 171.401,370.800 170.243,370.800 170.009 C 370.800 169.774,371.745 168.601,372.900 167.400 C 376.266 163.903,376.800 163.260,376.800 162.703 C 376.800 162.413,377.160 161.917,377.600 161.600 C 378.040 161.283,378.402 160.748,378.404 160.412 C 378.406 160.075,378.946 159.375,379.604 158.855 C 380.262 158.335,380.800 157.736,380.800 157.524 C 380.800 157.311,381.520 156.446,382.400 155.600 C 383.280 154.754,384.000 153.779,384.000 153.431 C 384.000 153.084,384.180 152.800,384.400 152.800 C 384.620 152.800,384.800 152.440,384.800 152.000 C 384.800 151.560,384.980 151.200,385.200 151.200 C 385.420 151.200,385.600 150.840,385.600 150.400 C 385.600 149.960,385.780 149.600,386.000 149.600 C 386.220 149.600,386.400 149.240,386.400 148.800 C 386.400 148.360,386.580 148.000,386.800 148.000 C 387.020 148.000,387.200 147.680,387.200 147.288 C 387.200 146.897,387.560 146.317,388.000 146.000 C 388.440 145.683,388.800 145.143,388.800 144.800 C 388.800 144.457,389.160 143.917,389.600 143.600 C 390.040 143.283,390.400 142.703,390.400 142.312 C 390.400 141.920,390.566 141.600,390.768 141.600 C 390.971 141.600,391.265 141.015,391.422 140.300 C 391.579 139.586,392.043 138.709,392.454 138.353 C 392.864 137.997,393.200 137.412,393.200 137.053 C 393.200 136.694,393.380 136.400,393.600 136.400 C 393.820 136.400,394.000 136.040,394.000 135.600 C 394.000 135.160,394.180 134.800,394.400 134.800 C 394.620 134.800,394.800 134.440,394.800 134.000 C 394.800 133.560,394.980 133.200,395.200 133.200 C 395.420 133.200,395.600 132.840,395.600 132.400 C 395.600 131.960,395.780 131.600,396.000 131.600 C 396.220 131.600,396.400 131.240,396.400 130.800 C 396.400 130.360,396.580 130.000,396.800 130.000 C 397.020 130.000,397.200 129.640,397.200 129.200 C 397.200 128.578,396.933 128.400,396.000 128.400 C 395.340 128.400,394.800 128.220,394.800 128.000 C 394.800 127.780,394.260 127.600,393.600 127.600 C 392.940 127.600,392.400 127.420,392.400 127.200 C 392.400 126.980,392.045 126.800,391.612 126.800 C 391.179 126.800,390.221 126.461,389.484 126.047 C 388.747 125.633,387.392 125.168,386.472 125.012 C 385.552 124.857,384.800 124.566,384.800 124.365 C 384.800 124.164,384.440 124.000,384.000 124.000 C 383.560 124.000,383.200 123.820,383.200 123.600 C 383.200 123.380,382.660 123.200,382.000 123.200 C 381.340 123.200,380.800 123.020,380.800 122.800 C 380.800 122.580,380.440 122.400,380.000 122.400 C 379.560 122.400,379.200 122.220,379.200 122.000 C 379.200 121.780,378.840 121.600,378.400 121.600 C 377.960 121.600,377.600 121.420,377.600 121.200 C 377.600 120.980,377.240 120.800,376.800 120.800 C 376.360 120.800,376.000 120.620,376.000 120.400 C 376.000 120.180,375.730 120.000,375.400 120.000 C 375.070 120.000,374.800 119.820,374.800 119.600 C 374.800 119.380,374.260 119.200,373.600 119.200 C 372.940 119.200,372.400 119.020,372.400 118.800 C 372.400 118.580,372.040 118.400,371.600 118.400 C 371.160 118.400,370.800 118.220,370.800 118.000 C 370.800 117.780,370.480 117.600,370.088 117.600 C 369.697 117.600,369.117 117.240,368.800 116.800 C 368.482 116.359,367.765 116.000,367.200 116.000 C 366.635 116.000,365.918 115.641,365.600 115.200 C 365.283 114.760,364.703 114.400,364.312 114.400 C 363.920 114.400,363.600 114.220,363.600 114.000 C 363.600 113.780,363.240 113.600,362.800 113.600 C 362.360 113.600,362.000 113.420,362.000 113.200 C 362.000 112.980,361.640 112.800,361.200 112.800 C 360.760 112.800,360.400 112.620,360.400 112.400 C 360.400 112.180,360.083 112.000,359.696 112.000 C 359.309 112.000,358.768 111.640,358.493 111.200 C 357.944 110.322,357.200 110.130,357.200 110.867 " stroke="none" fill="#abbbc3" fill-rule="evenodd"></path><path id="path1" d="M258.400 37.600 C 258.400 37.820,258.040 38.000,257.600 38.000 C 257.160 38.000,256.800 38.180,256.800 38.400 C 256.800 38.620,256.480 38.800,256.088 38.800 C 255.697 38.800,255.117 39.160,254.800 39.600 C 254.483 40.040,253.981 40.400,253.685 40.400 C 253.389 40.400,252.484 41.028,251.673 41.797 C 250.863 42.565,250.065 43.195,249.900 43.197 C 249.735 43.198,249.600 43.500,249.600 43.867 C 249.600 44.233,249.503 44.436,249.384 44.317 C 249.097 44.031,244.121 48.913,244.305 49.300 C 244.383 49.465,244.167 49.600,243.824 49.600 C 243.481 49.600,243.200 49.751,243.200 49.935 C 243.200 50.263,239.702 53.818,230.050 63.300 C 227.418 65.885,225.343 68.000,225.437 68.000 C 225.532 68.000,223.943 69.682,221.905 71.739 C 219.867 73.795,218.065 75.405,217.900 75.315 C 217.735 75.226,217.600 75.597,217.600 76.139 C 217.600 76.928,217.440 77.083,216.800 76.916 C 216.191 76.757,216.000 76.904,216.000 77.530 C 216.000 77.982,215.820 78.464,215.600 78.600 C 215.380 78.736,215.200 79.197,215.200 79.624 C 215.200 80.051,215.020 80.400,214.800 80.400 C 214.580 80.400,214.400 81.210,214.400 82.200 C 214.400 83.190,214.220 84.000,214.000 84.000 C 213.780 84.000,213.600 84.360,213.600 84.800 C 213.600 85.240,213.780 85.600,214.000 85.600 C 214.220 85.600,214.400 86.410,214.400 87.400 C 214.400 88.627,214.559 89.168,214.900 89.100 C 215.224 89.035,215.359 89.388,215.285 90.100 C 215.222 90.705,215.357 91.200,215.585 91.200 C 215.813 91.200,216.000 91.393,216.000 91.629 C 216.000 92.171,216.760 92.937,217.908 93.551 C 218.399 93.813,218.800 94.223,218.800 94.462 C 218.800 94.700,225.707 101.849,234.149 110.348 C 242.592 118.847,250.837 127.330,252.473 129.200 C 256.519 133.826,260.400 138.663,260.400 139.080 C 260.400 139.269,260.760 139.683,261.200 140.000 C 261.640 140.317,262.000 140.735,262.000 140.928 C 262.000 141.121,262.540 141.783,263.200 142.400 C 263.860 143.017,264.400 143.737,264.400 144.000 C 264.400 144.263,264.940 144.983,265.600 145.600 C 266.260 146.217,266.800 146.969,266.800 147.272 C 266.800 147.575,267.160 148.083,267.600 148.400 C 268.040 148.717,268.400 149.231,268.400 149.541 C 268.400 150.116,269.866 151.600,270.433 151.600 C 270.604 151.600,270.802 152.005,270.872 152.500 C 270.942 152.995,271.398 153.575,271.885 153.789 C 272.538 154.075,272.713 154.408,272.550 155.056 C 272.375 155.753,272.524 155.963,273.265 156.069 C 273.969 156.169,274.176 156.428,274.103 157.112 C 274.032 157.771,274.292 158.131,275.046 158.418 C 275.899 158.742,276.000 158.918,275.604 159.395 C 275.114 159.985,275.999 161.468,276.526 160.941 C 276.987 160.479,277.649 161.260,277.227 161.768 C 276.932 162.123,277.041 162.508,277.607 163.116 C 278.043 163.584,278.400 164.244,278.400 164.583 C 278.400 164.922,278.580 165.200,278.800 165.200 C 279.020 165.200,279.200 165.520,279.200 165.912 C 279.200 166.303,279.560 166.883,280.000 167.200 C 280.440 167.517,280.800 168.093,280.800 168.481 C 280.800 168.900,281.209 169.287,281.812 169.439 C 282.559 169.626,282.764 169.882,282.596 170.413 C 282.470 170.809,282.555 171.248,282.784 171.390 C 283.013 171.531,283.200 171.993,283.200 172.416 C 283.200 172.893,283.563 173.276,284.154 173.424 C 284.853 173.600,285.055 173.870,284.908 174.432 C 284.797 174.854,284.908 175.200,285.153 175.200 C 285.399 175.200,285.600 175.560,285.600 176.000 C 285.600 176.440,285.780 176.800,286.000 176.800 C 286.220 176.800,286.400 177.142,286.400 177.561 C 286.400 178.832,288.454 179.293,290.067 178.383 C 290.800 177.970,292.390 177.136,293.600 176.531 C 294.810 175.925,295.860 175.288,295.933 175.115 C 296.007 174.942,296.234 174.800,296.439 174.800 C 296.643 174.800,299.246 173.180,302.222 171.200 C 305.198 169.220,307.714 167.600,307.813 167.600 C 307.913 167.600,308.400 167.259,308.897 166.843 C 310.267 165.693,313.927 162.810,316.522 160.836 C 318.510 159.323,324.705 153.681,327.991 150.390 C 330.837 147.540,336.400 141.509,336.402 141.272 C 336.403 141.122,336.898 140.455,337.502 139.789 C 338.106 139.122,339.223 137.772,339.985 136.789 C 340.747 135.805,341.512 134.940,341.685 134.867 C 341.858 134.793,342.000 134.559,342.000 134.345 C 342.000 134.131,342.539 133.381,343.198 132.678 C 343.857 131.975,344.397 131.175,344.398 130.900 C 344.399 130.625,344.550 130.400,344.732 130.400 C 344.915 130.400,345.320 129.905,345.632 129.300 C 345.945 128.695,347.172 126.760,348.360 125.000 C 350.573 121.723,351.491 120.206,352.962 117.400 C 353.423 116.520,353.892 115.710,354.005 115.600 C 354.118 115.490,354.642 114.545,355.168 113.500 C 355.695 112.455,356.277 111.600,356.463 111.600 C 356.648 111.600,356.800 111.407,356.800 111.171 C 356.800 110.406,355.802 109.720,354.890 109.859 C 353.845 110.019,353.672 109.332,354.700 109.103 C 355.085 109.017,354.635 108.808,353.700 108.638 C 352.765 108.468,352.000 108.166,352.000 107.965 C 352.000 107.764,351.706 107.600,351.347 107.600 C 350.988 107.600,350.368 107.225,349.970 106.766 C 349.472 106.192,348.990 106.013,348.423 106.193 C 347.831 106.381,347.600 106.278,347.600 105.827 C 347.600 105.482,347.370 105.200,347.088 105.200 C 346.807 105.200,346.317 104.840,346.001 104.401 C 345.630 103.886,345.161 103.685,344.684 103.837 C 343.881 104.092,342.275 102.925,342.633 102.347 C 342.751 102.156,342.567 102.000,342.224 102.000 C 341.881 102.000,341.600 101.808,341.600 101.573 C 341.600 101.329,341.259 101.254,340.806 101.398 C 340.050 101.638,337.175 99.906,337.260 99.262 C 337.372 98.419,337.116 98.000,336.488 98.000 C 336.097 98.000,335.517 97.640,335.200 97.200 C 334.883 96.760,334.369 96.400,334.059 96.400 C 333.748 96.400,333.160 96.016,332.753 95.546 C 332.164 94.867,331.895 94.789,331.442 95.165 C 330.863 95.645,330.161 95.137,330.524 94.500 C 330.735 94.130,329.171 92.648,328.379 92.468 C 328.061 92.396,327.516 92.081,327.169 91.768 C 326.821 91.456,326.236 91.200,325.869 91.200 C 325.501 91.200,325.200 91.048,325.200 90.861 C 325.200 90.308,323.746 88.800,323.214 88.800 C 322.943 88.800,322.217 88.260,321.600 87.600 C 320.983 86.940,320.263 86.400,320.000 86.400 C 319.737 86.400,318.999 85.841,318.360 85.157 C 317.668 84.416,316.960 84.007,316.606 84.142 C 316.246 84.280,315.827 84.024,315.543 83.493 C 314.815 82.132,314.035 81.501,313.390 81.749 C 313.065 81.873,312.800 81.814,312.800 81.618 C 312.800 81.421,311.720 80.153,310.400 78.800 C 308.990 77.355,308.000 76.600,308.000 76.970 C 308.000 77.833,307.469 77.760,306.578 76.776 C 305.939 76.070,305.916 75.898,306.416 75.582 C 306.737 75.379,306.810 75.209,306.577 75.206 C 306.345 75.203,305.557 74.705,304.826 74.100 C 304.096 73.495,303.386 72.994,303.249 72.986 C 302.437 72.940,300.558 71.457,297.237 68.242 C 289.768 61.014,287.200 58.335,287.200 57.776 C 287.200 56.993,269.011 38.800,268.229 38.800 C 267.883 38.800,267.600 38.620,267.600 38.400 C 267.600 38.180,267.060 38.000,266.400 38.000 C 265.740 38.000,265.200 37.820,265.200 37.600 C 265.200 37.365,263.800 37.200,261.800 37.200 C 259.800 37.200,258.400 37.365,258.400 37.600 " stroke="none" fill="#546c7b" fill-rule="evenodd"></path><path id="path2" d="M212.900 97.427 C 210.645 99.717,208.800 101.859,208.800 102.187 C 208.800 102.515,207.810 103.773,206.600 104.983 C 205.390 106.193,204.400 107.457,204.400 107.791 C 204.400 108.126,204.226 108.400,204.014 108.400 C 203.422 108.400,195.600 116.300,195.600 116.898 C 195.600 117.187,195.240 117.683,194.800 118.000 C 194.360 118.317,194.000 118.801,194.000 119.075 C 194.000 119.533,192.774 121.057,190.500 123.426 C 190.005 123.942,189.600 124.480,189.600 124.621 C 189.600 124.763,189.060 125.383,188.400 126.000 C 187.740 126.617,187.200 127.333,187.200 127.592 C 187.200 127.851,186.480 128.754,185.600 129.600 C 184.720 130.446,184.000 131.346,184.000 131.600 C 184.000 131.854,183.280 132.754,182.400 133.600 C 181.520 134.446,180.800 135.349,180.800 135.608 C 180.800 135.867,180.260 136.583,179.600 137.200 C 178.940 137.817,178.400 138.537,178.400 138.800 C 178.400 139.063,177.860 139.783,177.200 140.400 C 176.540 141.017,176.000 141.676,176.000 141.865 C 176.000 142.054,175.550 142.693,175.000 143.287 C 174.450 143.880,174.000 144.571,174.000 144.822 C 174.000 145.073,173.460 145.783,172.800 146.400 C 172.140 147.017,171.600 147.737,171.600 148.000 C 171.600 148.263,171.060 148.983,170.400 149.600 C 169.740 150.217,169.200 150.969,169.200 151.272 C 169.200 151.575,168.840 152.083,168.400 152.400 C 167.960 152.717,167.600 153.225,167.600 153.528 C 167.600 153.831,167.060 154.583,166.400 155.200 C 165.740 155.817,165.200 156.543,165.200 156.814 C 165.200 157.346,163.692 158.800,163.139 158.800 C 162.952 158.800,162.800 159.088,162.800 159.440 C 162.800 159.791,162.260 160.583,161.600 161.200 C 160.940 161.817,160.400 162.527,160.400 162.779 C 160.400 163.030,159.950 163.686,159.400 164.236 C 158.850 164.786,158.400 165.516,158.400 165.858 C 158.400 166.199,157.860 166.983,157.200 167.600 C 156.540 168.217,156.000 168.933,156.000 169.192 C 156.000 169.451,155.280 170.354,154.400 171.200 C 153.520 172.046,152.800 172.955,152.800 173.222 C 152.800 173.748,151.288 175.200,150.739 175.200 C 150.552 175.200,150.400 175.482,150.400 175.826 C 150.400 176.170,149.500 177.329,148.400 178.400 C 147.300 179.471,146.400 180.535,146.400 180.764 C 146.400 180.993,145.230 182.379,143.800 183.845 C 142.370 185.311,141.193 186.800,141.184 187.155 C 141.175 187.510,140.076 188.790,138.741 190.000 C 137.406 191.210,133.745 194.787,130.606 197.949 C 127.466 201.111,123.795 204.801,122.447 206.149 C 121.098 207.497,117.408 211.187,114.247 214.349 C 111.085 217.511,107.392 221.201,106.041 222.549 C 104.690 223.897,100.802 227.790,97.401 231.200 C 89.728 238.893,88.858 239.763,81.200 247.400 C 77.790 250.802,73.880 254.713,72.510 256.092 C 69.099 259.528,68.103 260.400,67.588 260.400 C 67.346 260.400,66.271 261.300,65.200 262.400 C 64.129 263.500,63.046 264.400,62.795 264.400 C 62.543 264.400,61.646 265.120,60.800 266.000 C 59.954 266.880,59.108 267.600,58.920 267.600 C 58.731 267.600,58.317 267.960,58.000 268.400 C 57.683 268.840,57.143 269.200,56.800 269.200 C 56.457 269.200,55.917 269.560,55.600 270.000 C 55.283 270.440,54.743 270.800,54.400 270.800 C 54.057 270.800,53.517 271.160,53.200 271.600 C 52.883 272.040,52.303 272.400,51.912 272.400 C 51.520 272.400,51.200 272.580,51.200 272.800 C 51.200 273.020,50.906 273.200,50.547 273.200 C 50.188 273.200,49.603 273.536,49.247 273.946 C 48.891 274.357,48.039 274.816,47.354 274.966 C 46.669 275.117,45.731 275.591,45.271 276.020 C 44.810 276.449,44.156 276.800,43.817 276.800 C 43.478 276.800,43.200 276.936,43.200 277.102 C 43.200 277.269,42.615 277.660,41.900 277.972 C 41.185 278.284,40.309 278.868,39.953 279.270 C 39.597 279.671,39.012 280.000,38.653 280.000 C 38.294 280.000,38.000 280.180,38.000 280.400 C 38.000 280.620,37.640 280.800,37.200 280.800 C 36.760 280.800,36.400 280.980,36.400 281.200 C 36.400 281.420,36.080 281.600,35.688 281.600 C 35.297 281.600,34.717 281.960,34.400 282.400 C 34.083 282.840,33.503 283.200,33.112 283.200 C 32.720 283.200,32.400 283.380,32.400 283.600 C 32.400 283.820,32.040 284.000,31.600 284.000 C 31.160 284.000,30.800 284.180,30.800 284.400 C 30.800 284.620,30.440 284.800,30.000 284.800 C 29.560 284.800,29.200 284.980,29.200 285.200 C 29.200 285.420,28.912 285.600,28.560 285.600 C 28.209 285.600,27.417 286.140,26.800 286.800 C 26.183 287.460,25.553 288.000,25.400 288.000 C 25.247 288.000,24.617 288.540,24.000 289.200 C 23.383 289.860,22.673 290.400,22.422 290.400 C 22.171 290.400,21.480 290.850,20.887 291.400 C 20.293 291.950,19.579 292.400,19.298 292.400 C 18.629 292.400,12.000 299.036,12.000 299.706 C 12.000 299.991,11.640 300.483,11.200 300.800 C 10.760 301.117,10.400 301.697,10.400 302.088 C 10.400 302.480,10.220 302.800,10.000 302.800 C 9.780 302.800,9.600 303.145,9.600 303.567 C 9.600 303.988,9.417 304.394,9.193 304.469 C 8.969 304.544,8.674 305.549,8.537 306.702 C 8.400 307.856,8.134 308.800,7.944 308.800 C 7.755 308.800,7.600 311.500,7.600 314.800 C 7.600 318.100,7.759 320.800,7.954 320.800 C 8.149 320.800,8.432 321.790,8.583 323.000 C 8.734 324.210,9.025 325.200,9.229 325.200 C 9.433 325.200,9.600 325.560,9.600 326.000 C 9.600 326.440,9.780 326.800,10.000 326.800 C 10.220 326.800,10.400 327.084,10.400 327.431 C 10.400 327.779,11.120 328.754,12.000 329.600 C 12.880 330.446,13.600 331.337,13.600 331.580 C 13.600 331.824,15.805 334.181,18.500 336.817 C 21.195 339.453,23.735 341.948,24.145 342.360 C 33.723 351.997,39.805 358.074,40.957 359.156 C 41.751 359.902,42.400 360.667,42.400 360.856 C 42.400 361.045,42.760 361.200,43.200 361.200 C 43.640 361.200,44.000 361.380,44.000 361.600 C 44.000 361.820,44.540 362.000,45.200 362.000 C 45.860 362.000,46.400 362.180,46.400 362.400 C 46.400 362.633,47.733 362.800,49.600 362.800 C 51.467 362.800,52.800 362.633,52.800 362.400 C 52.800 362.180,53.340 362.000,54.000 362.000 C 54.660 362.000,55.200 361.820,55.200 361.600 C 55.200 361.380,55.520 361.200,55.912 361.200 C 56.303 361.200,56.883 360.840,57.200 360.400 C 57.517 359.960,58.007 359.600,58.288 359.600 C 58.570 359.600,58.800 359.364,58.800 359.076 C 58.800 358.788,59.516 357.933,60.391 357.176 C 61.266 356.419,61.986 355.485,61.991 355.100 C 61.996 354.715,62.180 354.400,62.400 354.400 C 62.620 354.400,62.800 354.040,62.800 353.600 C 62.800 353.160,62.980 352.800,63.200 352.800 C 63.420 352.800,63.600 352.440,63.600 352.000 C 63.600 351.560,63.780 351.200,64.000 351.200 C 64.220 351.200,64.400 350.840,64.400 350.400 C 64.400 349.960,64.580 349.600,64.800 349.600 C 65.020 349.600,65.200 349.240,65.200 348.800 C 65.200 348.360,65.380 348.000,65.600 348.000 C 65.820 348.000,66.000 347.460,66.000 346.800 C 66.000 346.140,66.180 345.600,66.400 345.600 C 66.620 345.600,66.800 345.240,66.800 344.800 C 66.800 344.360,66.980 344.000,67.200 344.000 C 67.420 344.000,67.600 343.640,67.600 343.200 C 67.600 342.760,67.780 342.400,68.000 342.400 C 68.220 342.400,68.400 341.950,68.400 341.400 C 68.400 340.850,68.580 340.400,68.800 340.400 C 69.020 340.400,69.200 340.040,69.200 339.600 C 69.200 339.160,69.380 338.800,69.600 338.800 C 69.820 338.800,70.000 338.440,70.000 338.000 C 70.000 337.560,70.180 337.200,70.400 337.200 C 70.620 337.200,70.800 336.840,70.800 336.400 C 70.800 335.960,70.980 335.600,71.200 335.600 C 71.420 335.600,71.600 335.240,71.600 334.800 C 71.600 334.360,71.780 334.000,72.000 334.000 C 72.220 334.000,72.400 333.640,72.400 333.200 C 72.400 332.760,72.580 332.400,72.800 332.400 C 73.020 332.400,73.200 332.040,73.200 331.600 C 73.200 331.160,73.380 330.800,73.600 330.800 C 73.820 330.800,74.000 330.440,74.000 330.000 C 74.000 329.560,74.180 329.200,74.400 329.200 C 74.620 329.200,74.800 328.853,74.800 328.429 C 74.800 328.004,75.070 327.387,75.400 327.057 C 75.730 326.727,76.000 326.186,76.000 325.856 C 76.000 325.525,76.360 325.140,76.800 325.000 C 77.240 324.860,77.600 324.477,77.600 324.147 C 77.600 323.818,78.500 322.671,79.600 321.600 C 80.700 320.529,81.600 319.458,81.600 319.220 C 81.600 318.983,121.830 278.558,171.000 229.388 C 220.170 180.218,260.400 139.706,260.400 139.362 C 260.400 138.693,257.287 134.704,252.470 129.200 C 250.007 126.385,217.273 93.131,217.065 93.232 C 217.029 93.249,215.155 95.137,212.900 97.427 " stroke="none" fill="#a05c18" fill-rule="evenodd"></path><path id="path3" d="M287.200 58.037 C 287.200 58.625,300.353 71.429,302.054 72.497 C 302.634 72.861,303.208 73.059,303.330 72.937 C 303.616 72.650,301.773 70.800,301.201 70.800 C 300.522 70.800,299.851 70.201,293.322 63.764 C 289.955 60.444,287.200 57.867,287.200 58.037 M306.000 75.924 C 306.000 76.348,307.545 77.797,307.749 77.564 C 307.828 77.474,307.467 76.989,306.946 76.486 C 306.426 75.983,306.000 75.730,306.000 75.924 M315.677 83.630 C 315.755 83.867,315.991 84.060,316.200 84.060 C 316.409 84.060,316.645 83.867,316.723 83.630 C 316.802 83.394,316.567 83.200,316.200 83.200 C 315.833 83.200,315.598 83.394,315.677 83.630 M339.261 101.018 C 339.624 101.389,340.140 101.620,340.406 101.531 C 340.673 101.442,340.375 101.139,339.745 100.856 C 338.673 100.376,338.642 100.386,339.261 101.018 M354.000 109.575 C 354.000 109.781,354.348 109.924,354.772 109.892 C 355.197 109.860,355.456 109.691,355.349 109.517 C 355.075 109.073,354.000 109.120,354.000 109.575 M348.431 124.849 C 347.075 126.857,346.026 128.559,346.099 128.632 C 346.172 128.706,347.215 127.298,348.416 125.504 C 351.107 121.485,351.282 121.200,351.069 121.200 C 350.974 121.200,349.788 122.842,348.431 124.849 M337.253 140.042 C 336.732 140.701,336.379 141.312,336.468 141.401 C 336.557 141.490,337.126 140.941,337.732 140.181 C 338.338 139.422,338.691 138.810,338.517 138.822 C 338.343 138.834,337.774 139.383,337.253 140.042 M330.987 147.300 L 328.600 149.800 331.100 147.413 C 332.475 146.099,333.600 144.974,333.600 144.913 C 333.600 144.617,333.205 144.978,330.987 147.300 M327.600 150.853 C 325.966 152.202,321.556 156.490,321.683 156.607 C 321.747 156.666,323.397 155.203,325.349 153.357 C 328.813 150.081,329.617 149.187,327.600 150.853 M270.000 152.200 C 270.000 152.530,270.180 152.800,270.400 152.800 C 270.620 152.800,270.800 152.530,270.800 152.200 C 270.800 151.870,270.620 151.600,270.400 151.600 C 270.180 151.600,270.000 151.870,270.000 152.200 M313.985 162.829 L 312.600 164.058 314.100 162.981 C 315.426 162.030,315.857 161.600,315.485 161.600 C 315.422 161.600,314.747 162.153,313.985 162.829 M305.400 169.061 C 303.023 170.739,302.650 171.091,303.988 170.393 C 305.361 169.677,308.198 167.595,307.760 167.624 C 307.562 167.638,306.500 168.284,305.400 169.061 M281.600 170.233 C 281.600 170.940,282.461 170.817,282.708 170.075 C 282.795 169.814,282.582 169.600,282.233 169.600 C 281.885 169.600,281.600 169.885,281.600 170.233 M287.700 179.246 C 288.122 179.483,288.654 179.498,289.039 179.282 C 289.521 179.012,289.348 178.915,288.339 178.888 C 287.262 178.859,287.137 178.929,287.700 179.246 " stroke="none" fill="#647c84" fill-rule="evenodd"></path><path id="path4" d="M287.603 57.900 C 287.605 58.195,298.798 69.288,300.156 70.340 C 302.492 72.151,300.399 69.659,294.875 64.052 C 289.187 58.277,287.594 56.930,287.603 57.900 M306.610 75.584 C 306.369 75.974,307.250 77.200,307.771 77.200 C 308.225 77.200,307.987 76.087,307.436 75.630 C 307.047 75.307,306.790 75.292,306.610 75.584 M337.600 99.206 C 337.600 99.698,339.977 101.196,340.762 101.199 C 341.201 101.200,341.174 101.035,340.639 100.443 C 340.232 99.994,339.639 99.769,339.177 99.890 C 338.644 100.029,338.400 99.890,338.400 99.447 C 338.400 99.091,338.220 98.800,338.000 98.800 C 337.780 98.800,337.600 98.983,337.600 99.206 M342.832 102.404 C 342.797 103.065,344.166 104.101,344.557 103.710 C 345.035 103.231,344.787 102.800,344.033 102.800 C 343.612 102.800,343.176 102.575,343.065 102.300 C 342.928 101.960,342.853 101.993,342.832 102.404 M356.832 110.668 C 356.725 112.242,346.211 129.422,342.797 133.600 C 341.988 134.590,340.307 136.737,339.062 138.371 C 336.794 141.346,335.717 142.580,330.832 147.800 C 326.956 151.941,319.870 158.496,316.000 161.520 C 314.130 162.982,312.510 164.273,312.400 164.390 C 311.268 165.591,300.974 172.556,297.017 174.797 C 296.238 175.239,294.925 175.987,294.100 176.459 C 289.640 179.013,288.414 179.580,287.836 179.358 C 287.486 179.224,287.200 179.314,287.200 179.557 C 287.200 182.396,310.702 167.437,321.000 158.043 C 331.229 148.712,341.091 137.397,347.882 127.200 C 352.103 120.862,357.357 111.426,357.066 110.704 C 356.928 110.360,356.853 110.349,356.832 110.668 " stroke="none" fill="#6c848c" fill-rule="evenodd"></path></g></svg>