<svg xmlns="http://www.w3.org/2000/svg" width="1000" height="1000" viewBox="-100 -50 1100 1100">
  <g id="valheim" transform="translate(17228 -19848)">
    <g id="Layer_2" data-name="Layer 2" transform="translate(-17097 19848)">
      <g id="Layer_1" data-name="Layer 1">
        <path id="Path_2697" data-name="Path 2697" d="M736.5,10.683h0L707.65,4.034l-29.071.291h0c-11.338-6.468-22.748-4.506-34.158,0h0l-10.574-.69h0L555.066,0c-1.381,1.417-2.8,2.8-4.215,4.215a7.522,7.522,0,0,0-2.58,2.435c-18.169,11.81-19.477,15.989-6.432,31.542,16.388,19.623,22.275,40.226,12.137,65.154-6.323,15.48-9.666,32.2-14.317,48.366h0A378.461,378.461,0,0,0,521.49,210.8h0c-5.778,3.634-5.233,9.63-6.432,15.08L502.812,268.9q-19.55,65.409-39.209,130.491L445.434,457.1h0c-.908.4-1.853.763-2.8,1.09q-10.9,39.609-21.8,79.29-4.361,12.755-8.794,25.437c-1.126,8.576-9.012,15.553-5.959,25.146-2.8,3.634-6.141,6.723-6.287,11.7-1.017,15.044-11.192,27.653-11.3,42.952l-6.941,11.374c-2.035-2.943-5.2-5.632-5.887-8.9-8.5-38.918-25.909-75.111-35.357-113.739h0q-3.452-14.9-6.9-29.761a211.85,211.85,0,0,1-14.535-47.24c-15.3-36.811-23.656-75.838-36.338-113.557-18.242-55.379-31.8-112.394-53.6-166.72h0c-1.744-18.823-10.284-35.829-14.535-54L210.762,102c11.447-13.809,12.428-31.8,18.86-47.567a32.233,32.233,0,0,0-1.344-7.268c1.163-1.235,2.289-2.471,3.452-3.634L239.469,29c9.957-13.082,4.07-19.332-9.63-21.476C219.992,6,210,5.342,200.042,4.288c-.327.945-.654,1.89-1.017,2.8h0l-36.593.472h0c-13.154.763-26.527-1.2-39.354,3.307h0l-27.363.182h0c-23.038.763-46.586-2.653-68.425,7.776L12.827,29.071a2.4,2.4,0,0,0-1.89,1.09H10.9L3.379,33.177,0,39.972c12.827,14.717,26.345,28.489,44.405,37.1a50.147,50.147,0,0,1,18.86,16.643,40.844,40.844,0,0,0,23.547,15.3l4.288,3.634,31.941,98.658h0l3.379,10.356h0q7.595,27.254,15.3,54.507a17.153,17.153,0,0,1,2.8,1.744c6.032,19.332,8.176,39.972,18.714,57.814,5.778,20.1,8.648,41.026,18.169,59.922l10.9,47.821c7.631,5.305,8.249,14.136,10.9,21.8,9.884,29.87,19.55,59.74,29.325,89.646h0c6.1,21.8,11.846,43.606,20.967,64.428h0l20.277,83.941a14.317,14.317,0,0,0,1.526,6.286c0,3.452.327,6.9.472,10.32,8.794,44.224,22.929,86.957,36.12,129.982h0c1.417,20.676,8.721,39.536,17.66,57.887h0l7.268,33c-6.541,5.741-4.615,12.936-3.634,20.059,2.108,13.627,9.957,24.056,18.533,34.122,1.417,7.268,5.85,5.087,10.175,3.307l4.8-9.448h0l4.542-15.88h0l21.8-75.729,9.375-26.491h0c2.289-4.833,4.76-9.593,6.832-14.535q29.434-70.06,58.723-140.084a37.791,37.791,0,0,1,8.867-4.687c2.507-.945,4.506-3.852,6.5-6.069,12.973-40.88,32.486-79.944,31.578-124.531.327-16.534,7.522-31.323,11.919-46.8l10.9-32.7,6.214-10.9h0c7.558-16.425,6.286-36.084,18.423-50.873,8.54-25.655,21.8-49.929,25.691-76.928a218.033,218.033,0,0,1,14.9-57.342c8.394-37.138,22.748-72.458,33.322-109.015q16.134-48.984,32.232-98.113c3.016-8.685,3.234-18.46,9.848-25.8l4.288-10.356c11.883-12.5,29.834-17.551,39.972-32.377h0C739.01,23.329,740.718,21,736.5,10.683Z" fill="#8e1e05"/>
      </g>
    </g>
    <rect id="Rectangle_5247" data-name="Rectangle 5247" width="1000" height="1000" transform="translate(-17228 19848)" fill="none"/>
  </g>
</svg>
